<svg version="1" xmlns="http://www.w3.org/2000/svg" width="1338.667" height="1338.667" viewBox="0 0 1004.000000 1004.000000"><path d="M281 185.4c-38.5 6.9-70.3 26.9-92.6 58.1-2.5 3.6-4.8 6.5-5.2 6.5-.7 0-83.1 18.9-85.4 19.6-1 .3-1.8.8-1.7 1.2 0 .4 15 13.1 33.3 28.2l33.2 27.5.6 9c4.1 61.4 50.7 113.9 112.8 127.2 12 2.6 43 2.6 55 0 56.2-12 98.7-54.5 110.7-110.7 1.4-6.5 1.8-13 1.8-27.5s-.4-21-1.8-27.5c-11.9-55.6-54.2-98.3-109.7-110.5-10.2-2.3-40.8-2.9-51-1.1zm38.2 64.1c15.1 3.1 27 9.7 38.3 21 15.2 15.2 22.5 32.7 22.5 54 0 21.3-7.3 38.8-22.5 54-15.2 15.2-32.7 22.5-54 22.5-21.3 0-38.8-7.3-54-22.5-15.2-15.2-22.5-32.7-22.5-54 0-21.3 7.3-38.8 22.5-54 11.2-11.1 23.2-17.8 37.9-21 8.1-1.8 23.5-1.8 31.8 0zM510.5 210.7c-9.3.8-29.7 3.6-38.5 5.4-15.3 3.1-39.2 10-38.7 11.3.2.6 5.5 16.2 11.7 34.6 6.2 18.4 11.5 33.7 11.6 33.9.2.2 6.1-1.3 13.1-3.3 23.7-6.7 34.5-8.1 63.3-8.1 20.3 0 27.6.4 36 1.8 53.5 9.4 98 32.6 133.2 69.6l10.6 11.2 28.1-23.7 28-23.7-4.9-5.6c-9-10.4-27.4-27.9-38.5-36.7-48.2-38.2-105.1-60.9-166.5-66.4-10.6-.9-39-1.1-48.5-.3zM713.2 394.7c-13.8 10.9-25.1 20.2-25.1 20.8-.1.5 17 22.6 37.9 49s37.9 48.3 37.7 48.7c-.1.4-21.3 17.4-47.2 37.9-25.8 20.4-47.6 37.6-48.3 38.3-1 1 2.7 6.2 18.8 26.7 11.1 14 20.5 25.5 20.9 25.7.5.2 22.7-17 49.3-38.1l48.5-38.4 27.4 34.6c15 19 32.4 41 38.6 48.8L883 663l26-20.6 26-20.6-1.9-2.6c-1.1-1.5-18.4-23.4-38.4-48.7-22.7-28.6-36.2-46.4-35.7-47 .5-.6 22.3-17.9 48.4-38.5 26.1-20.6 47.5-37.8 47.6-38.2 0-.7-37-47.9-40-51.2-.5-.5-22.4 16.2-49.2 37.3-26.6 21-48.7 38.2-49.1 38.2-.4 0-17.9-21.7-38.8-48.1-20.9-26.4-38.4-48-38.8-48-.4 0-12.1 8.9-25.9 19.7zM395.1 461.5c-23.2 5.3-42.3 18.1-53.9 36.3-9.7 15.2-13.6 28.5-13.5 46.2.1 15.2 2.2 24.4 8.8 37.6 10.3 20.6 24.8 32.9 50 42.7 5 1.9 61.2 26.3 124.9 54.1 63.8 27.8 116.1 50.4 116.4 50.2.5-.5 38.3-225.9 37.9-226.1-.1-.2-38.2 2.8-84.7 6.6s-85.8 6.8-87.5 6.8c-2.8 0-3.3-.6-6.5-7.7-9.8-21.5-29.9-38.6-53.2-45.2-9.7-2.8-29.7-3.6-38.7-1.5z"/><path d="M228.6 472.2c-2.9 9.6-4.6 59.2-2.7 78.4 7.2 73.2 38.6 139.2 90.5 190.7 46.4 46 104.9 75.4 170.9 85.8 16.4 2.6 56.2 3.7 74.3 2 71.5-6.5 137.9-37.7 189.3-88.9 13.1-13 13.4-13.4 11.5-15.2-5.5-5.2-51-45.3-51.9-45.6-.6-.3-5.6 4-11.1 9.4-53.4 52.4-125.3 76.6-197.9 66.6-101.8-14-182.4-91.3-200.4-192.1-4.3-24-4.8-43.7-2-69.6.6-5.4.9-10 .6-10.3-.3-.3-15.3-3-33.3-6-18.1-3-33.9-5.6-35.2-5.9-1.3-.3-2.4 0-2.6.7z"/></svg>